M48
; DRILL file {KiCad (5.1.5)-3} date 4/15/2021 4:15:54 PM
; FORMAT={-:-/ absolute / inch / decimal}
; #@! TF.CreationDate,2021-04-15T16:15:54-07:00
; #@! TF.GenerationSoftware,Kicad,Pcbnew,(5.1.5)-3
; #@! TF.FileFunction,Plated,1,2,PTH
FMAT,2
INCH
T1C0.0120
T2C0.0180
T3C0.1252
T4C0.1772
%
G90
G05
T1
X5.65Y-3.025
X5.675Y-3.725
X5.75Y-3.725
X5.8Y-3.725
X5.8Y-3.825
X5.8Y-3.9
X5.8Y-3.975
X5.8Y-4.05
X5.8Y-4.125
X5.8Y-4.2
X5.8Y-4.275
X5.8Y-4.35
X5.8Y-4.425
X5.85Y-3.725
X5.875Y-3.825
X5.875Y-3.9
X5.875Y-3.975
X5.875Y-4.05
X5.875Y-4.125
X5.875Y-4.2
X5.875Y-4.275
X5.875Y-4.35
X5.875Y-4.425
X5.925Y-3.725
X5.95Y-3.825
X5.95Y-3.9
X5.95Y-3.975
X5.95Y-4.05
X5.95Y-4.125
X5.95Y-4.2
X5.95Y-4.275
X5.95Y-4.35
X5.95Y-4.425
X6.0Y-3.725
X6.075Y-3.725
X6.1Y-3.375
X6.15Y-3.725
X6.225Y-3.145
X6.225Y-3.455
X6.225Y-3.725
X6.34Y-4.84
X6.34Y-4.88
X6.35Y-3.375
X6.35Y-3.475
X6.61Y-4.85
X6.65Y-4.875
X6.66Y-4.38
X6.71Y-4.58
X6.71Y-4.7
X6.725Y-4.985
X6.725Y-5.11
X6.725Y-5.235
X6.77Y-4.39
X6.82Y-4.32
X6.82Y-4.39
X6.83Y-4.81
X6.85Y-4.985
X6.85Y-5.11
X6.85Y-5.235
X6.95Y-4.82
X6.97Y-4.85
X6.975Y-4.985
X6.975Y-5.11
X6.975Y-5.235
X7.01Y-4.87
X7.0175Y-4.7575
X7.05Y-4.93
X7.07Y-4.51
X7.1Y-4.985
X7.1Y-5.11
X7.1Y-5.235
X7.12Y-5.33
X7.13Y-4.51
X7.16Y-5.43
X7.1776Y-4.5666
X7.22Y-5.16
X7.27Y-4.51
X7.27Y-5.0
X7.27Y-5.37
X7.3Y-4.35
X7.3Y-5.0
X7.31Y-5.16
X7.31Y-5.24
X7.33Y-4.94
X7.33Y-5.0
X7.35Y-4.61
X7.39Y-4.51
X7.41Y-4.75
X7.41Y-4.86
X7.41Y-5.15
X7.44Y-4.34
X7.45Y-4.51
X7.45Y-4.57
X7.45Y-4.63
X7.51Y-5.29
X7.51Y-5.33
X7.55Y-5.0424
X7.56Y-4.88
X7.62Y-4.83
X7.63Y-4.6
X7.63Y-5.24
X7.64Y-5.0
X7.64Y-5.14
T2
X4.775Y-3.225
X4.775Y-3.325
X4.775Y-3.425
X4.775Y-3.525
X4.775Y-3.625
X4.775Y-3.725
X4.775Y-4.575
X4.775Y-4.675
X4.775Y-4.775
X4.775Y-4.875
X4.775Y-4.975
X4.775Y-5.075
X4.775Y-5.175
X4.775Y-5.275
X4.875Y-3.225
X4.875Y-3.325
X4.875Y-3.425
X4.875Y-3.525
X4.875Y-3.625
X4.875Y-3.725
X4.875Y-4.575
X4.875Y-4.675
X4.875Y-4.775
X4.875Y-4.875
X4.875Y-4.975
X4.875Y-5.075
X4.875Y-5.175
X4.875Y-5.275
X4.975Y-3.225
X4.975Y-3.325
X4.975Y-3.425
X4.975Y-3.525
X4.975Y-3.625
X4.975Y-3.725
X4.975Y-4.575
X4.975Y-4.675
X4.975Y-4.775
X4.975Y-4.875
X4.975Y-4.975
X4.975Y-5.075
X4.975Y-5.175
X4.975Y-5.275
X5.075Y-3.225
X5.075Y-3.325
X5.075Y-3.425
X5.075Y-3.525
X5.075Y-5.2
X5.075Y-5.275
X5.175Y-3.225
X5.175Y-3.325
X5.175Y-3.425
X5.175Y-3.525
X5.175Y-5.2
X5.175Y-5.275
X5.275Y-3.225
X5.275Y-3.325
X5.275Y-3.425
X5.275Y-3.525
X5.275Y-4.475
X5.275Y-4.55
X5.275Y-4.975
X5.275Y-5.05
X5.275Y-5.2
X5.275Y-5.275
X5.375Y-3.225
X5.375Y-3.325
X5.375Y-3.425
X5.375Y-3.525
X5.375Y-4.475
X5.375Y-4.55
X5.375Y-4.975
X5.375Y-5.05
X5.375Y-5.2
X5.375Y-5.275
X5.475Y-3.225
X5.475Y-3.325
X5.475Y-3.425
X5.475Y-3.525
X6.375Y-4.7
X6.375Y-4.775
X6.375Y-5.2
X6.375Y-5.275
X6.4Y-4.925
X6.5Y-4.7
X6.5Y-4.775
X6.5Y-4.925
X6.5Y-5.2
X6.5Y-5.275
T3
X5.2874Y-4.2874
X6.4626Y-5.4626
X5.2874Y-2.7874
X6.4626Y-3.9626
T4
X4.875Y-3.9833
X4.875Y-4.2667
T0
M30
