G04 #@! TF.GenerationSoftware,KiCad,Pcbnew,(5.1.5)-3*
G04 #@! TF.CreationDate,2021-04-15T16:15:46-07:00*
G04 #@! TF.ProjectId,BattEval,42617474-4576-4616-9c2e-6b696361645f,rev?*
G04 #@! TF.SameCoordinates,Original*
G04 #@! TF.FileFunction,Soldermask,Bot*
G04 #@! TF.FilePolarity,Negative*
%FSLAX46Y46*%
G04 Gerber Fmt 4.6, Leading zero omitted, Abs format (unit mm)*
G04 Created by KiCad (PCBNEW (5.1.5)-3) date 2021-04-15 16:15:46*
%MOMM*%
%LPD*%
G04 APERTURE LIST*
%ADD10C,0.100000*%
G04 APERTURE END LIST*
D10*
G36*
X164860554Y-136407613D02*
G01*
X165303877Y-136591244D01*
X165303879Y-136591245D01*
X165702860Y-136857835D01*
X166042165Y-137197140D01*
X166308755Y-137596121D01*
X166308756Y-137596123D01*
X166492387Y-138039446D01*
X166586000Y-138510074D01*
X166586000Y-138989926D01*
X166492387Y-139460554D01*
X166308756Y-139903877D01*
X166308755Y-139903879D01*
X166042165Y-140302860D01*
X165702860Y-140642165D01*
X165303879Y-140908755D01*
X165303878Y-140908756D01*
X165303877Y-140908756D01*
X164860554Y-141092387D01*
X164389926Y-141186000D01*
X163910074Y-141186000D01*
X163439446Y-141092387D01*
X162996123Y-140908756D01*
X162996122Y-140908756D01*
X162996121Y-140908755D01*
X162597140Y-140642165D01*
X162257835Y-140302860D01*
X161991245Y-139903879D01*
X161991244Y-139903877D01*
X161807613Y-139460554D01*
X161714000Y-138989926D01*
X161714000Y-138510074D01*
X161807613Y-138039446D01*
X161991244Y-137596123D01*
X161991245Y-137596121D01*
X162257835Y-137197140D01*
X162597140Y-136857835D01*
X162996121Y-136591245D01*
X162996123Y-136591244D01*
X163439446Y-136407613D01*
X163910074Y-136314000D01*
X164389926Y-136314000D01*
X164860554Y-136407613D01*
G37*
G36*
X184133142Y-119614242D02*
G01*
X184281101Y-119675529D01*
X184414255Y-119764499D01*
X184527501Y-119877745D01*
X184616471Y-120010899D01*
X184677758Y-120158858D01*
X184709000Y-120315925D01*
X184709000Y-120476075D01*
X184677758Y-120633142D01*
X184616471Y-120781101D01*
X184527501Y-120914255D01*
X184414255Y-121027501D01*
X184281101Y-121116471D01*
X184133142Y-121177758D01*
X183976075Y-121209000D01*
X183815925Y-121209000D01*
X183658858Y-121177758D01*
X183510899Y-121116471D01*
X183377745Y-121027501D01*
X183264499Y-120914255D01*
X183175529Y-120781101D01*
X183114242Y-120633142D01*
X183083000Y-120476075D01*
X183083000Y-120315925D01*
X183114242Y-120158858D01*
X183175529Y-120010899D01*
X183264499Y-119877745D01*
X183377745Y-119764499D01*
X183510899Y-119675529D01*
X183658858Y-119614242D01*
X183815925Y-119583000D01*
X183976075Y-119583000D01*
X184133142Y-119614242D01*
G37*
G36*
X135010554Y-106557613D02*
G01*
X135453877Y-106741244D01*
X135453879Y-106741245D01*
X135852860Y-107007835D01*
X136192165Y-107347140D01*
X136458755Y-107746121D01*
X136458756Y-107746123D01*
X136642387Y-108189446D01*
X136736000Y-108660074D01*
X136736000Y-109139926D01*
X136642387Y-109610554D01*
X136458756Y-110053877D01*
X136458755Y-110053879D01*
X136192165Y-110452860D01*
X135852860Y-110792165D01*
X135453879Y-111058755D01*
X135453878Y-111058756D01*
X135453877Y-111058756D01*
X135010554Y-111242387D01*
X134539926Y-111336000D01*
X134060074Y-111336000D01*
X133589446Y-111242387D01*
X133146123Y-111058756D01*
X133146122Y-111058756D01*
X133146121Y-111058755D01*
X132747140Y-110792165D01*
X132407835Y-110452860D01*
X132141245Y-110053879D01*
X132141244Y-110053877D01*
X131957613Y-109610554D01*
X131864000Y-109139926D01*
X131864000Y-108660074D01*
X131957613Y-108189446D01*
X132141244Y-107746123D01*
X132141245Y-107746121D01*
X132407835Y-107347140D01*
X132747140Y-107007835D01*
X133146121Y-106741245D01*
X133146123Y-106741244D01*
X133589446Y-106557613D01*
X134060074Y-106464000D01*
X134539926Y-106464000D01*
X135010554Y-106557613D01*
G37*
G36*
X126634000Y-111184000D02*
G01*
X121016000Y-111184000D01*
X121016000Y-105566000D01*
X126634000Y-105566000D01*
X126634000Y-111184000D01*
G37*
G36*
X124463457Y-98437965D02*
G01*
X124644355Y-98473948D01*
X125155561Y-98685696D01*
X125615633Y-98993107D01*
X126006893Y-99384367D01*
X126314304Y-99844439D01*
X126526052Y-100355645D01*
X126634000Y-100898338D01*
X126634000Y-101451662D01*
X126526052Y-101994355D01*
X126314304Y-102505561D01*
X126006893Y-102965633D01*
X125615633Y-103356893D01*
X125155561Y-103664304D01*
X124644355Y-103876052D01*
X124463457Y-103912035D01*
X124101664Y-103984000D01*
X123548336Y-103984000D01*
X123186543Y-103912035D01*
X123005645Y-103876052D01*
X122494439Y-103664304D01*
X122034367Y-103356893D01*
X121643107Y-102965633D01*
X121335696Y-102505561D01*
X121123948Y-101994355D01*
X121016000Y-101451662D01*
X121016000Y-100898338D01*
X121123948Y-100355645D01*
X121335696Y-99844439D01*
X121643107Y-99384367D01*
X122034367Y-98993107D01*
X122494439Y-98685696D01*
X123005645Y-98473948D01*
X123186543Y-98437965D01*
X123548336Y-98366000D01*
X124101664Y-98366000D01*
X124463457Y-98437965D01*
G37*
G36*
X164860554Y-98307613D02*
G01*
X165303877Y-98491244D01*
X165303879Y-98491245D01*
X165702860Y-98757835D01*
X166042165Y-99097140D01*
X166234084Y-99384368D01*
X166308756Y-99496123D01*
X166492387Y-99939446D01*
X166586000Y-100410074D01*
X166586000Y-100889926D01*
X166492387Y-101360554D01*
X166308756Y-101803877D01*
X166308755Y-101803879D01*
X166042165Y-102202860D01*
X165702860Y-102542165D01*
X165303879Y-102808755D01*
X165303878Y-102808756D01*
X165303877Y-102808756D01*
X164860554Y-102992387D01*
X164389926Y-103086000D01*
X163910074Y-103086000D01*
X163439446Y-102992387D01*
X162996123Y-102808756D01*
X162996122Y-102808756D01*
X162996121Y-102808755D01*
X162597140Y-102542165D01*
X162257835Y-102202860D01*
X161991245Y-101803879D01*
X161991244Y-101803877D01*
X161807613Y-101360554D01*
X161714000Y-100889926D01*
X161714000Y-100410074D01*
X161807613Y-99939446D01*
X161991244Y-99496123D01*
X162065916Y-99384368D01*
X162257835Y-99097140D01*
X162597140Y-98757835D01*
X162996121Y-98491245D01*
X162996123Y-98491244D01*
X163439446Y-98307613D01*
X163910074Y-98214000D01*
X164389926Y-98214000D01*
X164860554Y-98307613D01*
G37*
G36*
X135010554Y-68457613D02*
G01*
X135453877Y-68641244D01*
X135453879Y-68641245D01*
X135852860Y-68907835D01*
X136192165Y-69247140D01*
X136458755Y-69646121D01*
X136458756Y-69646123D01*
X136642387Y-70089446D01*
X136736000Y-70560074D01*
X136736000Y-71039926D01*
X136642387Y-71510554D01*
X136458756Y-71953877D01*
X136458755Y-71953879D01*
X136192165Y-72352860D01*
X135852860Y-72692165D01*
X135453879Y-72958755D01*
X135453878Y-72958756D01*
X135453877Y-72958756D01*
X135010554Y-73142387D01*
X134539926Y-73236000D01*
X134060074Y-73236000D01*
X133589446Y-73142387D01*
X133146123Y-72958756D01*
X133146122Y-72958756D01*
X133146121Y-72958755D01*
X132747140Y-72692165D01*
X132407835Y-72352860D01*
X132141245Y-71953879D01*
X132141244Y-71953877D01*
X131957613Y-71510554D01*
X131864000Y-71039926D01*
X131864000Y-70560074D01*
X131957613Y-70089446D01*
X132141244Y-69646123D01*
X132141245Y-69646121D01*
X132407835Y-69247140D01*
X132747140Y-68907835D01*
X133146121Y-68641245D01*
X133146123Y-68641244D01*
X133589446Y-68457613D01*
X134060074Y-68364000D01*
X134539926Y-68364000D01*
X135010554Y-68457613D01*
G37*
M02*
